<?xml version="1.0" encoding="UTF-8"?>
<svg version="1.1" xmlns="http://www.w3.org/2000/svg" width="1024" height="1024">
<path d="M0 0 C337.92 0 675.84 0 1024 0 C1024 337.92 1024 675.84 1024 1024 C686.08 1024 348.16 1024 0 1024 C0 686.08 0 348.16 0 0 Z " fill="#FEFEFD" transform="translate(0,0)"/>
<path d="M0 0 C1.51803756 1.31276036 3.01935951 2.64520056 4.5 4 C5.18191406 4.59039062 5.86382813 5.18078125 6.56640625 5.7890625 C21.87334939 19.8678556 29.71361315 41.25239947 30.84899902 61.70150757 C31.00196051 66.44150847 30.95277177 71.17676697 30.890625 75.91796875 C30.88313446 77.63958569 30.87745491 79.36121134 30.87347412 81.08283997 C30.85843845 85.54296788 30.81935703 90.00254736 30.7746582 94.46246338 C30.72589203 99.85172954 30.70806599 105.24118246 30.68484497 110.6306076 C30.64648442 118.75411601 30.56968038 126.87642899 30.5 135 C41.72 135 52.94 135 64.5 135 C64.41430087 121.25608862 64.32044866 107.51229802 64.21247292 93.76854324 C64.16264989 87.38591918 64.11631904 81.00331055 64.078125 74.62060547 C64.04109494 68.45432124 63.99468786 62.28817072 63.94193649 56.12200165 C63.92348636 53.77626657 63.90834428 51.43050294 63.89665604 49.08472443 C63.87963212 45.78453547 63.85055975 42.48464654 63.81884766 39.18457031 C63.81668747 38.2271846 63.81452728 37.26979889 63.81230164 36.28340149 C63.69383526 26.55424986 62.36804686 17.0286288 58.8125 7.9375 C58.55484863 7.26412598 58.29719727 6.59075195 58.03173828 5.89697266 C55.5876544 -0.23442008 52.29606873 -5.60923573 48.5 -11 C46.52 -13.97 46.52 -13.97 44.5 -17 C78.49 -17 112.48 -17 147.5 -17 C144.86 -12.38 142.22 -7.76 139.5 -3 C137.69208175 1.07629713 137.69208175 1.07629713 136.625 4.6875 C136.25632812 5.82574219 135.88765625 6.96398437 135.5078125 8.13671875 C133.15651125 17.15004021 132.20624994 25.70970306 132.23930359 35.01464844 C132.23547804 36.17445378 132.23165249 37.33425913 132.22771102 38.52921009 C132.21923523 41.71717257 132.21959264 44.9049859 132.22389162 48.09295201 C132.22637337 51.5437458 132.21732654 54.99451329 132.20985413 58.44529724 C132.1971429 65.19529904 132.19530914 71.94526099 132.19765439 78.69527274 C132.19944255 84.18874955 132.19767725 89.68221433 132.19342995 95.1756897 C132.19253716 96.35169244 132.19253716 96.35169244 132.19162634 97.55145282 C132.19041449 99.14459205 132.18920035 100.73773128 132.18798397 102.33087051 C132.17712116 117.25396093 132.17926432 132.17702873 132.18536881 147.10012043 C132.19053081 160.7148185 132.17929925 174.32944486 132.16027059 187.94412875 C132.14083608 201.95785928 132.13264638 215.97155599 132.13639385 229.98530006 C132.13829818 237.8390603 132.13589428 245.69275962 132.12167931 253.54650879 C132.10969235 260.2365413 132.10844133 266.92647545 132.12046947 273.6165095 C132.12630887 277.02149251 132.12593166 280.42615097 132.11546707 283.83114433 C132.05876839 303.72782647 132.63069762 322.47287369 140.5 341 C140.85707031 341.86625 141.21414063 342.7325 141.58203125 343.625 C148.46626969 358.80438087 160.632896 370.13673028 174.38598633 379.08300781 C175.78944802 380.00836717 177.14957708 380.99882439 178.5 382 C178.5 382.66 178.5 383.32 178.5 384 C168.55903015 386.5261419 159.39322968 387.51717774 149.125 387.4375 C148.447789 387.43479095 147.770578 387.43208191 147.07284546 387.42929077 C136.67418625 387.36628718 127.30402633 386.62451882 117.5 383 C116.44683594 382.63777344 115.39367187 382.27554687 114.30859375 381.90234375 C94.95441626 374.61053997 80.94376264 360.36648052 72.04296875 341.9921875 C64.06063701 323.13362732 63.94397034 303.49830043 64.109375 283.359375 C64.11911194 280.65269409 64.12273623 277.94601376 64.12652588 275.23931885 C64.13883088 268.90039065 64.17147822 262.56174695 64.21192384 256.22294259 C64.2570366 248.99170165 64.27872659 241.76044525 64.29870558 234.52909803 C64.34022631 219.68588207 64.41341674 204.84303441 64.5 190 C53.28 190 42.06 190 30.5 190 C30.54640625 194.29257812 30.5928125 198.58515625 30.640625 203.0078125 C30.6664715 206.49901883 30.68811873 209.99019698 30.70700073 213.48144531 C30.72784883 217.12911182 30.7555442 220.77638732 30.80175781 224.42382812 C31.25119407 260.88580208 25.68193899 295.22391026 1.5 324 C0.74332031 324.91910156 -0.01335937 325.83820313 -0.79296875 326.78515625 C-25.54222755 355.49106654 -62.49584932 369.23165601 -99.5 372 C-138.88687732 374.13626196 -176.68472638 363.17816946 -206.5 337 C-228.86494737 316.70453639 -240.01340878 288.62878595 -242.5 259 C-244.07728957 225.68150257 -236.25883694 195.20726744 -214.0625 169.8125 C-212.55641626 168.1944776 -211.0361585 166.58949734 -209.5 165 C-208.5409375 164.00226563 -208.5409375 164.00226563 -207.5625 162.984375 C-183.07502806 139.45344494 -150.75630686 134.31487987 -118.265625 134.609375 C-115.80556707 134.61685606 -113.34550309 134.62254014 -110.88543701 134.62652588 C-104.48055923 134.64163543 -98.07605726 134.68078714 -91.67132568 134.7253418 C-85.10775839 134.76661503 -78.54412903 134.78460466 -71.98046875 134.8046875 C-59.15345603 134.84729859 -46.32681839 134.91752466 -33.5 135 C-33.5 127.74 -33.5 120.48 -33.5 113 C-35.748125 114.093125 -37.99625 115.18625 -40.3125 116.3125 C-63.21719381 127.16838348 -90.0877908 126.91535125 -113.84375 118.8671875 C-120.80774458 116.21172492 -126.61202526 112.53002741 -132.5 108 C-133.510625 107.278125 -134.52125 106.55625 -135.5625 105.8125 C-147.75112932 95.25132971 -154.2469884 79.74997915 -155.68457031 63.97460938 C-156.9447926 44.6270241 -151.363257 26.18345312 -138.6484375 11.30078125 C-104.84763138 -24.89680931 -39.57936457 -30.80412319 0 0 Z " fill="#0C0C0D" transform="translate(516.5,279)"/>
<path d="M0 0 C0.90508301 0.12358887 1.81016602 0.24717773 2.74267578 0.37451172 C79.0077793 11.13536522 146.22770082 44.46849187 202.4375 96.75 C203.0876709 97.35166992 203.7378418 97.95333984 204.40771484 98.57324219 C208.32229167 102.25151654 211.92352264 106.09338192 215.42114258 110.16943359 C217.42233456 112.48966515 219.52453543 114.70714804 221.625 116.9375 C265.36833515 165.04855091 293.95394397 229.13161471 304 293 C304.24556641 294.54131592 304.24556641 294.54131592 304.49609375 296.11376953 C308.90074208 325.08525292 309.09313168 356.12578541 304 385 C303.82307617 386.00901367 303.64615234 387.01802734 303.46386719 388.05761719 C295.51716431 431.93604394 276.05868346 472.42182504 248 507 C247.30801514 507.8655249 247.30801514 507.8655249 246.60205078 508.74853516 C233.33810786 525.25039823 218.06743651 540.47266975 201 553 C199.44109196 554.22989228 197.88219971 555.45981498 196.32714844 556.69458008 C163.5609565 582.51697685 116.19613628 610.71509297 73.125 610.0625 C72.34382813 610.05347656 71.56265625 610.04445313 70.7578125 610.03515625 C69.88769531 610.01775391 69.88769531 610.01775391 69 610 C71.98495325 607.59069749 74.9438585 605.98792225 78.4453125 604.43359375 C79.51378418 603.9530957 80.58225586 603.47259766 81.68310547 602.97753906 C82.81893066 602.46932617 83.95475586 601.96111328 85.125 601.4375 C116.17203047 587.31545793 142.84813944 568.57618915 166.87646484 544.38427734 C168.75527423 542.49469553 170.64461854 540.61612095 172.53515625 538.73828125 C179.4763972 531.80578592 186.00757131 524.78259539 192 517 C192.56509277 516.26861816 193.13018555 515.53723633 193.71240234 514.78369141 C205.9757778 498.62981381 216.4013489 481.36120801 225 463 C225.56976562 461.81277344 226.13953125 460.62554688 226.7265625 459.40234375 C239.69363969 431.65693856 246.92046169 401.36596542 250 371 C250.19722656 369.16308594 250.19722656 369.16308594 250.3984375 367.2890625 C250.72305267 363.52528126 250.90126271 359.77497907 251 356 C251.04084717 354.44829102 251.04084717 354.44829102 251.08251953 352.86523438 C252.70838641 278.79114863 226.9062967 210.40639128 178 155 C177.52739746 154.4642334 177.05479492 153.9284668 176.56787109 153.37646484 C128.2870587 99.03435514 56.76580611 65.50717166 -15 58 C-16.30179199 57.85860596 -16.30179199 57.85860596 -17.62988281 57.71435547 C-88.69142037 50.83465344 -161.35495107 68.81608109 -221 108 C-221.68739258 108.45084961 -222.37478516 108.90169922 -223.08300781 109.36621094 C-232.20476826 115.39744532 -240.92680428 121.85865465 -249.42871094 128.73291016 C-250.87407117 129.89845081 -252.33104568 131.04955003 -253.7890625 132.19921875 C-269.66267003 144.86532741 -284.96250448 159.4129498 -298 175 C-299.24136719 176.44246094 -299.24136719 176.44246094 -300.5078125 177.9140625 C-338.90860924 222.61307909 -366.42072193 273.72355675 -384.01586914 329.8371582 C-384.26547394 330.62630615 -384.51507874 331.4154541 -384.77224731 332.22851562 C-385.24469108 333.72382732 -385.71203327 335.2207632 -386.17355347 336.71948242 C-387.77555319 341.77555319 -387.77555319 341.77555319 -390 344 C-391.05078829 292.27786552 -380.97382082 239.55927536 -358 193 C-357.32627418 191.60052445 -356.65308881 190.20078859 -355.98046875 188.80078125 C-346.50328546 169.2824908 -335.30166981 151.14383404 -322 134 C-321.36707031 133.18402344 -320.73414063 132.36804688 -320.08203125 131.52734375 C-318.0836452 128.99330783 -316.04898358 126.49329723 -314 124 C-313.19820313 123.01128906 -312.39640625 122.02257812 -311.5703125 121.00390625 C-305.25183017 113.34545402 -298.43595537 106.22677711 -291.4375 99.1875 C-290.14453003 97.88075317 -290.14453003 97.88075317 -288.82543945 96.54760742 C-282.85779625 90.60820673 -276.57490182 85.25147675 -270 80 C-268.69459896 78.91543922 -267.39213419 77.82732626 -266.09375 76.734375 C-193.89107026 16.50942748 -93.39153616 -13.07445538 0 0 Z " fill="#0C0C0D" transform="translate(544,135)"/>
<path d="M0 0 C0.99 0.495 0.99 0.495 2 1 C1.28457031 1.66902344 0.56914062 2.33804687 -0.16796875 3.02734375 C-37.02643973 38.25252764 -59.14276677 88.99932195 -68.3125 138.4375 C-68.53329224 139.62146362 -68.53329224 139.62146362 -68.75854492 140.8293457 C-71.58565287 157.20473574 -72.37647766 173.53410367 -72.3125 190.125 C-72.30976578 191.60451645 -72.30976578 191.60451645 -72.30697632 193.11392212 C-72.25986864 208.28949815 -71.62585738 223.02364659 -69 238 C-68.74259033 239.55992676 -68.74259033 239.55992676 -68.47998047 241.15136719 C-64.57150652 264.6022109 -58.07614475 287.03513399 -49 309 C-48.66274902 309.81887695 -48.32549805 310.63775391 -47.97802734 311.48144531 C-37.40539089 336.80157988 -22.92063801 360.43083506 -6 382 C-5.29617188 382.8971875 -4.59234375 383.794375 -3.8671875 384.71875 C8.00139783 399.52257686 21.16730637 413.16741272 36 425 C36.83917969 425.70640625 37.67835938 426.4128125 38.54296875 427.140625 C101.21040209 479.85332233 188.33531879 503.88525519 269.28466797 497.22875977 C339.56270304 490.53715293 407.14162693 462.96894486 460.4375 416.35205078 C462.05596722 414.95157086 463.69622221 413.58098215 465.34375 412.21484375 C471.99670339 406.66914669 478.3083823 400.87199496 484.4375 394.75 C485.4126355 393.776073 485.4126355 393.776073 486.4074707 392.7824707 C490.79473746 388.34449713 494.93494693 383.73323887 499 379 C499.45737549 378.4750293 499.91475098 377.95005859 500.38598633 377.40917969 C529.86247989 343.57099588 550.40696345 305.12914313 565.81591797 263.17333984 C567.46624554 258.75046195 569.21487249 254.36996714 571 250 C571.33 250 571.66 250 572 250 C569.16443503 329.254041 529.14886277 404.94950904 475 461 C474.47132324 461.55059082 473.94264648 462.10118164 473.39794922 462.66845703 C466.66883232 469.65062753 459.63155413 476.00303523 452 482 C451.02417969 482.804375 450.04835938 483.60875 449.04296875 484.4375 C398.5706741 525.74366961 334.73968244 551.44484404 270 558 C269.15010498 558.0942627 268.30020996 558.18852539 267.42456055 558.28564453 C257.20485922 559.29900383 246.94722685 559.24277319 236.6875 559.25 C235.19775665 559.25151062 235.19775665 559.25151062 233.67791748 559.25305176 C147.28714864 559.19407366 65.06155712 528.50678622 -1 473 C-2.01707031 472.16855469 -3.03414063 471.33710937 -4.08203125 470.48046875 C-17.79077994 459.14614433 -31.17606182 446.55161741 -42.0859375 432.46875 C-44.21374059 429.72431826 -46.47767851 427.12579372 -48.75 424.5 C-55.46516407 416.44388211 -61.23172628 407.74768236 -67 399 C-67.50821289 398.23268555 -68.01642578 397.46537109 -68.54003906 396.67480469 C-94.36457741 357.45851877 -113.47469487 313.49697909 -121 267 C-121.11859375 266.2898877 -121.2371875 265.57977539 -121.359375 264.84814453 C-132.5589529 195.50075819 -102.21999888 119.99606227 -62.375 64.5 C-54.93249816 54.29482721 -46.7508465 44.80840732 -38.25 35.47265625 C-36.65518191 33.72001762 -35.0730813 31.95576815 -33.5 30.18359375 C-28.60564416 24.69982615 -23.63547527 19.70562185 -18 15 C-16.84230873 14.0055817 -15.6862017 13.00931756 -14.53125 12.01171875 C-13.27092647 10.9243712 -12.01050914 9.83713237 -10.75 8.75 C-10.14704102 8.22994385 -9.54408203 7.7098877 -8.92285156 7.17407227 C-6.01583433 4.68008495 -3.10697036 2.24563204 0 0 Z " fill="#0D0D0D" transform="translate(288,301)"/>
<path d="M0 0 C0.95745621 -0.00029205 1.91491241 -0.00058411 2.90138245 -0.00088501 C6.02330017 0.0004932 9.14497038 0.01598237 12.2668457 0.03173828 C14.44830698 0.03547379 16.62976995 0.03831822 18.81123352 0.04031372 C24.52070848 0.04790783 30.23007982 0.0675196 35.93951416 0.08972168 C41.77842813 0.11027156 47.61735903 0.1193349 53.45629883 0.12939453 C64.88928677 0.15076984 76.32219821 0.1848542 87.75512695 0.22705078 C87.83226714 7.42709348 87.88417504 14.62702667 87.91992188 21.82739258 C87.93485078 24.26818829 87.95520122 26.70895793 87.98144531 29.1496582 C88.24653611 54.46842793 87.5966946 78.88682753 70.75512695 99.22705078 C70.29750977 99.85740234 69.83989258 100.48775391 69.3684082 101.13720703 C59.5814301 114.03955955 41.98072322 121.33529912 26.45483398 123.89746094 C4.26478171 126.6065015 -18.45261978 124.33581407 -36.99731445 110.96337891 C-50.15394411 100.62849503 -57.77940291 86.66789752 -60.24487305 70.22705078 C-61.74010628 51.97799939 -60.31621372 33.42477816 -48.2097168 18.76220703 C-35.31019956 5.08917377 -18.40976495 -0.15097251 0 0 Z " fill="#FEFDFD" transform="translate(395.244873046875,468.77294921875)"/>
<path d="M0 0 C4.67396563 3.79582663 7.44721918 8.29505212 8.625 14.25 C9.34834305 23.08313143 8.50260311 30.92036494 2.9375 38.0625 C-1.13881708 42.45473166 -7.27775931 45.91277854 -13.33276367 46.41113281 C-15.74282083 46.45692203 -18.15204391 46.48529089 -20.5625 46.5 C-21.38814453 46.520625 -22.21378906 46.54125 -23.06445312 46.5625 C-30.81610033 46.61136775 -37.49240741 44.61768391 -43.76953125 39.90625 C-49.76676643 33.71932125 -51.75446572 25.24621521 -51.65625 16.91015625 C-50.92958542 10.03712046 -47.3133109 3.96883042 -42.375 -0.75 C-29.55545533 -8.03542429 -12.34393273 -8.48645375 0 0 Z " fill="#FDFDFC" transform="translate(468.375,316.75)"/>
<path d="M0 0 C33.99 0 67.98 0 103 0 C101.68 1.98 100.36 3.96 99 6 C98.01 5.505 98.01 5.505 97 5 C97.66 4.34 98.32 3.68 99 3 C87.07626876 2.16113289 75.22820396 1.86343635 63.27734375 1.90234375 C61.55286196 1.90421543 59.82837962 1.90563577 58.10389709 1.90663147 C53.62753761 1.91039772 49.15121206 1.9201755 44.67486572 1.93133545 C40.08207661 1.94167842 35.48928185 1.94615631 30.89648438 1.95117188 C21.93097491 1.96180486 12.96549031 1.97880771 4 2 C4.37253906 2.47050781 4.74507812 2.94101562 5.12890625 3.42578125 C5.60199219 4.04839844 6.07507813 4.67101562 6.5625 5.3125 C7.03816406 5.92738281 7.51382813 6.54226563 8.00390625 7.17578125 C8.33261719 7.77777344 8.66132812 8.37976563 9 9 C8.67 9.99 8.34 10.98 8 12 C6.66382103 10.18959679 5.33112616 8.3766216 4 6.5625 C3.2575 5.55316406 2.515 4.54382813 1.75 3.50390625 C0 1 0 1 0 0 Z " fill="#020202" transform="translate(561,262)"/>
<path d="M0 0 C0.33 0 0.66 0 1 0 C0.53007706 8.47097928 -0.25359884 16.69187796 -2 25 C-2.33 25 -2.66 25 -3 25 C-3 21.7 -3 18.4 -3 15 C-3.66 15.99 -4.32 16.98 -5 18 C-6 16 -6 16 -4.78515625 12.3046875 C-4.21866415 10.82514342 -3.64408111 9.34867819 -3.0625 7.875 C-2.77181641 7.12089844 -2.48113281 6.36679687 -2.18164062 5.58984375 C-1.46125002 3.72391398 -0.73149596 1.8616042 0 0 Z " fill="#080808" transform="translate(859,551)"/>
<path d="M0 0 C0.99 0.33 1.98 0.66 3 1 C-4.92 8.92 -12.84 16.84 -21 25 C-21.66 24.34 -22.32 23.68 -23 23 C-22.57332031 22.64550781 -22.14664063 22.29101562 -21.70703125 21.92578125 C-16.97705082 17.89798348 -12.52286129 13.63322412 -8.125 9.25 C-7.55370361 8.68321533 -6.98240723 8.11643066 -6.39379883 7.5324707 C-3.98881963 5.11887794 -1.89569211 2.84353816 0 0 Z " fill="#060606" transform="translate(782,685)"/>
<path d="M0 0 C0.59167969 0.2165625 1.18335938 0.433125 1.79296875 0.65625 C1.60546875 2.53125 1.60546875 2.53125 0.79296875 4.65625 C-1.45703125 5.78125 -1.45703125 5.78125 -4.20703125 6.65625 C-8.64379122 8.09819699 -11.0508231 10.22950972 -14.20703125 13.65625 C-14.86703125 13.32625 -15.52703125 12.99625 -16.20703125 12.65625 C-12.72355793 9.0774841 -9.19147804 5.54207107 -5.51953125 2.15625 C-4.97941406 1.6509375 -4.43929688 1.145625 -3.8828125 0.625 C-2.20703125 -0.34375 -2.20703125 -0.34375 0 0 Z " fill="#171717" transform="translate(271.20703125,317.34375)"/>
<path d="M0 0 C5.03163018 4.29785078 10.02718443 8.63425542 15 13 C14.01 13.33 13.02 13.66 12 14 C9.99387601 12.04761147 7.99507567 10.08862178 6 8.125 C5.42765625 7.56941406 4.8553125 7.01382813 4.265625 6.44140625 C2.80549218 4.99865596 1.39850702 3.5025626 0 2 C0 1.34 0 0.68 0 0 Z " fill="#171717" transform="translate(736,223)"/>
<path d="M0 0 C0.66 0.66 1.32 1.32 2 2 C-1.96 6.62 -5.92 11.24 -10 16 C-10.33 15.01 -10.66 14.02 -11 13 C-10.34 13 -9.68 13 -9 13 C-8.74476563 12.43796875 -8.48953125 11.8759375 -8.2265625 11.296875 C-6.84307219 8.70613518 -5.20061417 6.54892155 -3.375 4.25 C-2.74335937 3.45078125 -2.11171875 2.6515625 -1.4609375 1.828125 C-0.97882812 1.22484375 -0.49671875 0.6215625 0 0 Z " fill="#151515" transform="translate(521,595)"/>
<path d="M0 0 C0.33 0 0.66 0 1 0 C1 3.63 1 7.26 1 11 C1.99 11.33 2.98 11.66 4 12 C3.01 14.64 2.02 17.28 1 20 C0.67 20 0.34 20 0 20 C0 13.4 0 6.8 0 0 Z " fill="#1B1B1B" transform="translate(154,459)"/>
<path d="M0 0 C0.66 0 1.32 0 2 0 C2 0.99 2 1.98 2 3 C2.66 3 3.32 3 4 3 C4.33 5.97 4.66 8.94 5 12 C5.66 12 6.32 12 7 12 C7 12.66 7 13.32 7 14 C6.01 14 5.02 14 4 14 C3.32968281 12.0429132 2.66385317 10.08428887 2 8.125 C1.62875 7.03445313 1.2575 5.94390625 0.875 4.8203125 C0 2 0 2 0 0 Z " fill="#121313" transform="translate(176,605)"/>
<path d="M0 0 C0.66 0.33 1.32 0.66 2 1 C0.68 4.96 -0.64 8.92 -2 13 C-2.66 13 -3.32 13 -4 13 C-4 11.35 -4 9.7 -4 8 C-3.34 8 -2.68 8 -2 8 C-1.855625 6.865625 -1.71125 5.73125 -1.5625 4.5625 C-1 1 -1 1 0 0 Z " fill="#141314" transform="translate(166,439)"/>
<path d="M0 0 C2.125 0.9375 2.125 0.9375 4 2 C3.67 2.66 3.34 3.32 3 4 C0.03 4 -2.94 4 -6 4 C-4.03617993 2.49440461 -2.21736634 1.10868317 0 0 Z " fill="#161617" transform="translate(619,741)"/>
<path d="M0 0 C0.99 0 1.98 0 3 0 C2.5317879 4.77576339 1.75668002 8.04476345 -1 12 C-2.3609623 9.2780754 -1.70366248 7.8168043 -1.0625 4.875 C-0.86785156 3.96492188 -0.67320312 3.05484375 -0.47265625 2.1171875 C-0.31667969 1.41851562 -0.16070312 0.71984375 0 0 Z " fill="#121313" transform="translate(162,397)"/>
<path d="M0 0 C0 3 0 3 -1.6796875 4.82421875 C-2.40414063 5.43910156 -3.12859375 6.05398437 -3.875 6.6875 C-4.59429687 7.31011719 -5.31359375 7.93273437 -6.0546875 8.57421875 C-8 10 -8 10 -10 10 C-8.78934835 6.36804504 -7.46308874 5.57103808 -4.4375 3.3125 C-3.61121094 2.68988281 -2.78492188 2.06726563 -1.93359375 1.42578125 C-1.29550781 0.95527344 -0.65742188 0.48476562 0 0 Z " fill="#030303" transform="translate(285,206)"/>
<path d="M0 0 C-0.33 0.66 -0.66 1.32 -1 2 C-2.65 1.67 -4.3 1.34 -6 1 C-6 1.66 -6 2.32 -6 3 C-6.99 3 -7.98 3 -9 3 C-9 2.01 -9 1.02 -9 0 C-5.62182575 -0.84454356 -3.32534757 -1.10844919 0 0 Z " fill="#151515" transform="translate(369,416)"/>
<path d="M0 0 C0 0.66 0 1.32 0 2 C-1.75 3.2890625 -1.75 3.2890625 -4 4.625 C-4.7425 5.07101562 -5.485 5.51703125 -6.25 5.9765625 C-6.8275 6.31429687 -7.405 6.65203125 -8 7 C-4.5 0 -4.5 0 0 0 Z " fill="#131313" transform="translate(733,787)"/>
<path d="M0 0 C0.66 0.33 1.32 0.66 2 1 C1.40138258 3.35171131 0.73075648 5.6859378 0 8 C-0.99 8.495 -0.99 8.495 -2 9 C-1.125 2.25 -1.125 2.25 0 0 Z " fill="#141414" transform="translate(764,608)"/>
<path d="M0 0 C0.66 0 1.32 0 2 0 C4.04169485 2.90548882 5 4.40142046 5 8 C4.34 8 3.68 8 3 8 C0 2.25 0 2.25 0 0 Z " fill="#131413" transform="translate(366,362)"/>
</svg>
